# xmcd CD database file
# Copyright (C) 1996 Ti Kan
#
# Track frame offsets:
#	150
#	17217
#	31452
#	47827
#	64050
#	77520
#	91635
#	106865
#	122862
#	137380
#
# Disc length: 2122 seconds
#
# Revision: 1
# Processed by: cddbd v1.4b41PL1 Copyright (c) Steve Scherf et al.
# Submitted via: EasyCD 2.21 - (C) 1996 Greg Leichner
#
DISCID=7508480a
DTITLE=Conway Twitty - Borderline
DYEAR=1900
DGENRE=
TTITLE0=Julia
TTITLE1=Lonely Town
TTITLE2=I Want To Know You Before We Make Love
TTITLE3=Borderline
TTITLE4=Not Enough Love To Go 'Round
TTITLE5=Snake Boots
TTITLE6=I'm For Awhile
TTITLE7=Eighteen To Forty-Three
TTITLE8=Everybody Needs A Hero
TTITLE9=That's My Job
EXTD=
EXTT0=
EXTT1=
EXTT2=
EXTT3=
EXTT4=
EXTT5=
EXTT6=
EXTT7=
EXTT8=
EXTT9=
PLAYORDER=
